<?xml version="1.0" encoding="utf-8"?>
<!-- Generator: Adobe Illustrator 23.0.3, SVG Export Plug-In . SVG Version: 6.00 Build 0)  -->
<svg version="1.1" id="Layer_1" xmlns="http://www.w3.org/2000/svg" xmlns:xlink="http://www.w3.org/1999/xlink" x="0px" y="0px"
	 viewBox="0 0 112 78" style="enable-background:new 0 0 112 78;" xml:space="preserve">
<style type="text/css">
	.st0{opacity:0.75;fill:#FFFFFF;enable-background:new    ;}
	.st1{fill:none;stroke:#4D4D4F;stroke-width:0.4;stroke-linecap:round;stroke-linejoin:round;}
	.st2{display:none;fill:none;stroke:#4D4D4F;stroke-width:0.4;stroke-linecap:round;stroke-linejoin:round;}
	.st3{fill:none;stroke:#4D4D4F;stroke-width:0.75;stroke-linecap:round;stroke-linejoin:round;}
</style>
<g id="lib">
	<g id="car">
		<g id="car_1_">
			<polygon class="st0" points="1,23.76 1.04,27.6 1.91,29.11 4.68,31.24 12.44,36.16 12.3,36.79 12.84,39.8 14.34,42.84 
				16.52,45.3 18.92,46.69 21.08,46.74 25.33,44.29 25.62,44.03 27.95,45.4 39.52,52.21 59.24,63.8 61.19,64.95 61.18,65 
				61.73,68.02 63.23,71.06 65.39,73.52 67.79,74.91 69.96,74.96 74.13,72.55 80.93,76.55 106.29,61.91 110.6,57.86 110.82,57.57 
				110.75,54.24 109.77,53.24 108.31,49.2 108.02,48.72 106.43,47.12 105.82,46.67 101.78,43.76 87.04,33.4 82.27,28.88 83.02,27.7 
				83.23,27.28 83.34,26.89 83.43,26.43 83.42,26.28 82.86,25.72 82.08,25.42 81.93,25.56 80.99,27.07 80.8,27.47 80.79,27.48 
				78.49,25.29 74.46,21.74 71.9,19.66 71.68,19.51 68.74,17.71 65.54,15.82 50.42,7.09 49.15,6.41 48.43,6.1 42.6,4.92 38.64,4.33 
				31.5,1 4.85,16.38 4.68,16.99 3.74,20.4 3.45,21.64 2.59,22.14 2.21,22.48 			"/>
			<g>
				<polyline class="st1" points="109.77,53.24 103.82,56.68 102.93,56.36 102.54,55.26 102.7,51.79 102.2,49.57 106.44,47.12 				
					"/>
				<polygon class="st1" points="26.88,18.55 28.36,18.42 38.55,12.54 48.73,6.66 48.01,6.35 42.18,5.17 38.64,4.64 26.23,11.8 
					13.83,18.97 18.87,18.63 				"/>
				<polygon class="st1" points="94.32,68.29 102.44,63.6 104.98,61.34 95.34,66.91 85.7,72.47 86.19,72.98 				"/>
				<polygon class="st1" points="92.36,56.25 98.86,52.5 99.7,53.52 99.99,57.78 94.49,60.96 88.98,64.14 86.63,61.06 85.86,60.01 
									"/>
				<polygon class="st1" points="60.51,48.72 73.57,41.18 86.62,33.65 78.06,25.53 74.04,21.98 71.49,19.9 60.92,26 50.35,32.1 
					52.31,34.53 55.1,38.79 				"/>
				<polygon class="st1" points="76.38,67.26 76.38,65.3 77.2,64 81.44,61.55 83.64,62.79 85.81,64.92 86.21,66.02 85.81,67.08 
					79.86,70.51 77.66,68.99 				"/>
				<polyline class="st1" points="58.81,60.13 58.2,62.14 59.24,63.8 				"/>
				<line class="st1" x1="25.7" y1="27.73" x2="27.63" y2="19.81"/>
				<polygon class="st1" points="26.61,31.01 26.5,31.4 23.26,29.45 23.37,29.07 23.75,28.84 26.45,30.46 				"/>
				<polyline class="st1" points="39.57,25.55 39.29,26.21 37.42,35.4 				"/>
				<polyline class="st1" points="50.28,43.81 41.55,38.1 39.29,36.62 37.42,35.4 25.97,27.91 25.7,27.73 21.17,24.77 				"/>
				<line class="st1" x1="53.24" y1="45.74" x2="53.85" y2="46.15"/>
				<line class="st1" x1="53.85" y1="46.15" x2="58.3" y2="49.06"/>
				<polygon class="st1" points="42.93,41.39 43.09,41.94 42.99,42.33 39.75,40.38 39.85,39.99 40.23,39.77 				"/>
				<polyline class="st1" points="42.56,27.37 42.36,27.98 41.55,38.1 				"/>
				<polygon class="st1" points="53.47,45.6 53.69,45.29 53.76,44.96 53.73,44.62 53.5,43.98 53.19,43.41 52.81,43.34 50.5,43.71 
					50.07,43.91 49.84,44.26 49.72,44.88 49.8,45.24 50.11,45.81 50.62,46.1 50.95,46.22 53.06,45.85 				"/>
				<polygon class="st1" points="3.33,22.2 4.53,20.86 5.16,18.6 4.69,16.99 3.73,20.4 3.46,21.64 				"/>
				<polyline class="st1" points="53.85,46.15 54.5,45.12 53.76,44.96 53.73,44.62 54.71,44.8 56.08,42.64 				"/>
				<polyline class="st1" points="61.2,64.95 61.41,63.99 61.72,62.6 63.22,61.3 65.39,61.34 67.8,62.73 69.97,65.19 71.47,68.23 
					71.78,69.97 72,71.25 71.47,73.65 69.97,74.96 				"/>
				<polyline class="st1" points="74.13,72.55 73.75,72.33 73.64,72.26 72.67,70.87 71.78,69.97 				"/>
				<polyline class="st1" points="22.9,41.76 23.79,42.65 24.15,43.16 25.32,43.85 25.63,44.03 				"/>
				<polyline class="st1" points="21.09,46.74 22.59,45.43 23.13,43.03 22.9,41.76 22.59,40.01 21.09,36.97 18.92,34.51 
					16.51,33.12 14.34,33.08 12.84,34.38 12.53,35.77 12.45,36.16 12.31,36.79 				"/>
				<line class="st1" x1="81.92" y1="28.54" x2="82.09" y2="28.71"/>
				<line class="st1" x1="80.72" y1="27.41" x2="81.92" y2="28.54"/>
				<polyline class="st1" points="27.95,45.4 25.69,43.36 24.72,40.65 21.91,34.36 21.69,33.72 21.25,30.51 21.2,29.91 21.17,24.77 
					22.08,21.93 23.59,20.48 25.3,19.83 27.63,19.81 27.92,19.81 28.27,19.84 29.42,19.86 31.12,20.32 39.15,25.27 39.57,25.55 
					41.07,26.46 42.56,27.37 43,27.64 43.98,28.25 47.17,30.6 47.56,30.98 49.51,32.67 51.57,35.22 54.32,39.43 56.08,42.64 
					56.86,44.08 57.58,46.19 58.3,49.06 59.1,52.36 59.15,52.55 58.99,55.26 59.06,55.71 58.81,60.13 				"/>
				<polyline class="st1" points="39.53,52.21 38.11,50.54 38.19,47.88 38.2,44.17 38.14,43.22 38.52,40.48 39.29,36.62 
					40.82,27.09 41.07,26.46 				"/>
				<line class="st2" x1="80.8" y1="27.48" x2="82.09" y2="28.71"/>
			</g>
			<polygon class="st3" points="1,23.76 1.04,27.6 1.91,29.11 4.68,31.24 12.44,36.16 12.3,36.79 12.84,39.8 14.34,42.84 
				16.52,45.3 18.92,46.69 21.08,46.74 25.33,44.29 25.62,44.03 27.95,45.4 39.52,52.21 59.24,63.8 61.19,64.95 61.18,65 
				61.73,68.02 63.23,71.06 65.39,73.52 67.79,74.91 69.96,74.96 74.13,72.55 80.93,76.55 106.29,61.91 110.6,57.86 110.82,57.57 
				110.75,54.24 109.77,53.24 108.31,49.2 108.02,48.72 106.43,47.12 105.82,46.67 101.78,43.76 87.04,33.4 82.27,28.88 83.02,27.7 
				83.23,27.28 83.34,26.89 83.43,26.43 83.42,26.28 82.86,25.72 82.08,25.42 81.93,25.56 80.99,27.07 80.8,27.47 80.79,27.48 
				78.49,25.29 74.46,21.74 71.9,19.66 71.68,19.51 68.74,17.71 65.54,15.82 50.42,7.09 49.15,6.41 48.43,6.1 42.6,4.92 38.64,4.33 
				31.5,1 4.85,16.38 4.68,16.99 3.74,20.4 3.45,21.64 2.59,22.14 2.21,22.48 			"/>
		</g>
	</g>
</g>
</svg>
